<?xml version="1.0" encoding="UTF-8" standalone="no"?><!DOCTYPE svg PUBLIC "-//W3C//DTD SVG 1.1//EN" "http://www.w3.org/Graphics/SVG/1.1/DTD/svg11.dtd"><svg width="1920px" height="1080px" version="1.1" xmlns="http://www.w3.org/2000/svg" xmlns:xlink="http://www.w3.org/1999/xlink" xml:space="preserve" xmlns:serif="http://www.serif.com/" style="fill-rule:evenodd;clip-rule:evenodd;stroke-linejoin:round;stroke-miterlimit:2;"><g><g transform="matrix(25.2916,0,0,21.825,-1926.53,-3986.98)"><g><g transform="matrix(0.757011,0,0,0.646992,1.64777,96.2735)"><path d="M198.647,125.437C198.647,125.287 198.603,125.143 198.525,125.037C198.446,124.93 198.34,124.871 198.229,124.871L97.888,124.871C97.778,124.871 97.671,124.93 97.593,125.037C97.515,125.143 97.471,125.287 97.471,125.437L97.471,197.104C97.471,197.495 97.704,197.812 97.993,197.812L198.229,197.812C198.34,197.812 198.446,197.752 198.525,197.646C198.603,197.54 198.647,197.395 198.647,197.245L198.647,125.437Z" style="fill:rgb(135,181,255);"/></g><g transform="matrix(1,0,0,1,-2.16473,30.4019)"><path d="M154.647,207.242C154.647,207.445 154.506,207.609 154.331,207.609L78.372,207.609C78.197,207.609 78.056,207.445 78.056,207.242L78.056,190.239C104.411,190.11 112.602,181.273 124.89,180.599C133.159,180.146 146.797,186.144 154.647,189.671L154.647,207.242Z" style="fill:rgb(175,205,255);"/></g></g><g><g transform="matrix(0.757011,0,0,0.646992,1.64777,96.2735)"><path d="M198.647,125.437C198.647,125.287 198.603,125.143 198.525,125.037C198.446,124.93 198.34,124.871 198.229,124.871L97.888,124.871C97.778,124.871 97.671,124.93 97.593,125.037C97.515,125.143 97.471,125.287 97.471,125.437L97.471,197.104C97.471,197.495 97.704,197.812 97.993,197.812L198.229,197.812C198.34,197.812 198.446,197.752 198.525,197.646C198.603,197.54 198.647,197.395 198.647,197.245L198.647,125.437Z" style="fill:rgb(135,181,255);"/></g><g transform="matrix(1,0,0,1,-2.16473,30.4019)"><path d="M154.647,207.242C154.647,207.445 154.506,207.609 154.331,207.609L78.372,207.609C78.197,207.609 78.056,207.445 78.056,207.242L78.056,190.239C104.411,190.11 112.602,181.273 124.89,180.599C133.159,180.146 146.797,186.144 154.647,189.671L154.647,207.242Z" style="fill:rgb(175,205,255);"/></g></g></g></g></svg>