<?xml version="1.0" encoding="UTF-8" standalone="no"?><!DOCTYPE svg PUBLIC "-//W3C//DTD SVG 1.1//EN" "http://www.w3.org/Graphics/SVG/1.1/DTD/svg11.dtd"><svg width="100px" height="100px" version="1.1" xmlns="http://www.w3.org/2000/svg" xmlns:xlink="http://www.w3.org/1999/xlink" xml:space="preserve" xmlns:serif="http://www.serif.com/" style="fill-rule:evenodd;clip-rule:evenodd;stroke-linejoin:round;stroke-miterlimit:2;"><g transform="matrix(1,0,0,1,-100,-100)"><g transform="matrix(0.573616,0,0,0.559625,69.871,57.2101)"><ellipse cx="139.691" cy="165.807" rx="87.166" ry="89.345" style="fill:white;"/></g><g transform="matrix(1,0,0,1,98.6739,99.23)"><path d="M66.187,66.17C67.368,66.17 68.394,66.606 69.267,67.479C70.14,68.352 70.576,69.378 70.576,70.559L70.576,74.486C70.576,75.667 70.14,76.693 69.267,77.566C68.394,78.439 67.368,78.875 66.187,78.875L36.465,78.875C35.284,78.875 34.258,78.439 33.385,77.566C32.512,76.693 32.076,75.667 32.076,74.486L32.076,27.054C32.076,25.873 32.512,24.847 33.385,23.974C34.258,23.101 35.284,22.665 36.465,22.665L43.472,22.665C44.653,22.665 45.679,23.101 46.552,23.974C47.425,24.847 47.861,25.873 47.861,27.054L47.861,65.477C47.861,65.939 48.092,66.17 48.554,66.17L66.187,66.17Z" style="fill-rule:nonzero;"/></g></g></svg>